name rise42.5664peak47.7979fall81.9185.mot
datacolumns 19
datarows 33
range 20.71825200000000 20.77158400000000
endheader
time	ground_force1_vx	ground_force1_vy	ground_force1_vz	ground_force1_px	ground_force1_py	ground_force1_pz	ground_force2_vx	ground_force2_vy	ground_force2_vz	ground_force2_px	ground_force2_py	ground_force2_pz	ground_torque1_x	ground_torque1_y	ground_torque1_z	ground_torque2_x	ground_torque2_y	ground_torque2_z	
20.71825200000000	61.28929000000000	783.55303700000002	50.65447500000000	0.32448400000000	0.00000000000000	0.08900900000000	0.00000000000000	0.00000000000000	0.00000000000000	0.00000000000000	0.00000000000000	0.00000000000000	0.00000000000000	20.45641200000000	0.00000000000000	0.00000000000000	0.00000000000000	0.00000000000000	
20.71992600000000	60.65298700000000	786.20508299999995	50.78147000000000	0.32350800000000	0.00000000000000	0.08901800000000	0.00000000000000	0.00000000000000	0.00000000000000	0.00000000000000	0.00000000000000	0.00000000000000	0.00000000000000	20.51739600000000	0.00000000000000	0.00000000000000	0.00000000000000	0.00000000000000	
20.72158400000000	60.01268700000000	788.69353100000001	50.90484500000000	0.32254600000000	0.00000000000000	0.08902700000000	0.00000000000000	0.00000000000000	0.00000000000000	0.00000000000000	0.00000000000000	0.00000000000000	0.00000000000000	20.57753600000000	0.00000000000000	0.00000000000000	0.00000000000000	0.00000000000000	
20.72325300000000	59.36905800000000	791.01744399999995	51.02448400000000	0.32159700000000	0.00000000000000	0.08903600000000	0.00000000000000	0.00000000000000	0.00000000000000	0.00000000000000	0.00000000000000	0.00000000000000	0.00000000000000	20.63673700000000	0.00000000000000	0.00000000000000	0.00000000000000	0.00000000000000	
20.72491900000000	58.72270700000000	793.17612599999995	51.14021400000000	0.32065900000000	0.00000000000000	0.08904500000000	0.00000000000000	0.00000000000000	0.00000000000000	0.00000000000000	0.00000000000000	0.00000000000000	0.00000000000000	20.69486800000000	0.00000000000000	0.00000000000000	0.00000000000000	0.00000000000000	
20.72658700000000	58.07418500000000	795.16912500000001	51.25180400000000	0.31973200000000	0.00000000000000	0.08905500000000	0.00000000000000	0.00000000000000	0.00000000000000	0.00000000000000	0.00000000000000	0.00000000000000	0.00000000000000	20.75176700000000	0.00000000000000	0.00000000000000	0.00000000000000	0.00000000000000	
20.72824900000000	57.42399000000000	796.99624500000004	51.35897500000000	0.31881500000000	0.00000000000000	0.08906400000000	0.00000000000000	0.00000000000000	0.00000000000000	0.00000000000000	0.00000000000000	0.00000000000000	0.00000000000000	20.80724300000000	0.00000000000000	0.00000000000000	0.00000000000000	0.00000000000000	
20.72993500000000	56.77256700000000	798.65754800000002	51.46139900000000	0.31790600000000	0.00000000000000	0.08907300000000	0.00000000000000	0.00000000000000	0.00000000000000	0.00000000000000	0.00000000000000	0.00000000000000	0.00000000000000	20.86107800000000	0.00000000000000	0.00000000000000	0.00000000000000	0.00000000000000	
20.73158900000000	56.12031400000000	800.15336300000001	51.55871000000000	0.31700400000000	0.00000000000000	0.08908200000000	0.00000000000000	0.00000000000000	0.00000000000000	0.00000000000000	0.00000000000000	0.00000000000000	0.00000000000000	20.91303200000000	0.00000000000000	0.00000000000000	0.00000000000000	0.00000000000000	
20.73325100000000	55.46758100000000	801.48428999999999	51.65050200000000	0.31610800000000	0.00000000000000	0.08909200000000	0.00000000000000	0.00000000000000	0.00000000000000	0.00000000000000	0.00000000000000	0.00000000000000	0.00000000000000	20.96284200000000	0.00000000000000	0.00000000000000	0.00000000000000	0.00000000000000	
20.73493300000000	54.81467600000000	802.65119900000002	51.73634200000000	0.31521600000000	0.00000000000000	0.08910100000000	0.00000000000000	0.00000000000000	0.00000000000000	0.00000000000000	0.00000000000000	0.00000000000000	0.00000000000000	21.01023100000000	0.00000000000000	0.00000000000000	0.00000000000000	0.00000000000000	
20.73658900000000	54.16186900000000	803.65524000000005	51.81576900000000	0.31432800000000	0.00000000000000	0.08911000000000	0.00000000000000	0.00000000000000	0.00000000000000	0.00000000000000	0.00000000000000	0.00000000000000	0.00000000000000	21.05490600000000	0.00000000000000	0.00000000000000	0.00000000000000	0.00000000000000	
20.73825700000000	53.50939000000000	804.49783700000000	51.88830300000000	0.31344100000000	0.00000000000000	0.08911900000000	0.00000000000000	0.00000000000000	0.00000000000000	0.00000000000000	0.00000000000000	0.00000000000000	0.00000000000000	21.09656500000000	0.00000000000000	0.00000000000000	0.00000000000000	0.00000000000000	
20.73993500000000	52.85743900000000	805.18068700000003	51.95345100000000	0.31255500000000	0.00000000000000	0.08912800000000	0.00000000000000	0.00000000000000	0.00000000000000	0.00000000000000	0.00000000000000	0.00000000000000	0.00000000000000	21.13489700000000	0.00000000000000	0.00000000000000	0.00000000000000	0.00000000000000	
20.74158800000000	52.20618600000000	805.70576700000004	52.01071000000000	0.31166800000000	0.00000000000000	0.08913700000000	0.00000000000000	0.00000000000000	0.00000000000000	0.00000000000000	0.00000000000000	0.00000000000000	0.00000000000000	21.16958600000000	0.00000000000000	0.00000000000000	0.00000000000000	0.00000000000000	
20.74325200000000	51.55577600000000	806.07531900000004	52.05957300000000	0.31077800000000	0.00000000000000	0.08914500000000	0.00000000000000	0.00000000000000	0.00000000000000	0.00000000000000	0.00000000000000	0.00000000000000	0.00000000000000	21.20031800000000	0.00000000000000	0.00000000000000	0.00000000000000	0.00000000000000	
20.74492000000000	50.90633000000000	806.29185900000004	52.09953800000000	0.30988500000000	0.00000000000000	0.08915400000000	0.00000000000000	0.00000000000000	0.00000000000000	0.00000000000000	0.00000000000000	0.00000000000000	0.00000000000000	21.22677700000000	0.00000000000000	0.00000000000000	0.00000000000000	0.00000000000000	
20.74658500000000	50.25795100000000	806.35815900000000	52.13010900000000	0.30898600000000	0.00000000000000	0.08916200000000	0.00000000000000	0.00000000000000	0.00000000000000	0.00000000000000	0.00000000000000	0.00000000000000	0.00000000000000	21.24865500000000	0.00000000000000	0.00000000000000	0.00000000000000	0.00000000000000	
20.74825300000000	49.61072700000000	806.27725199999998	52.15080100000000	0.30808000000000	0.00000000000000	0.08917100000000	0.00000000000000	0.00000000000000	0.00000000000000	0.00000000000000	0.00000000000000	0.00000000000000	0.00000000000000	21.26565100000000	0.00000000000000	0.00000000000000	0.00000000000000	0.00000000000000	
20.74993000000000	48.96473300000000	806.05241699999999	52.16114900000000	0.30716700000000	0.00000000000000	0.08917900000000	0.00000000000000	0.00000000000000	0.00000000000000	0.00000000000000	0.00000000000000	0.00000000000000	0.00000000000000	21.27747300000000	0.00000000000000	0.00000000000000	0.00000000000000	0.00000000000000	
20.75159000000000	48.32003600000000	805.68717600000002	52.16070700000000	0.30624400000000	0.00000000000000	0.08918600000000	0.00000000000000	0.00000000000000	0.00000000000000	0.00000000000000	0.00000000000000	0.00000000000000	0.00000000000000	21.28384600000000	0.00000000000000	0.00000000000000	0.00000000000000	0.00000000000000	
20.75327800000000	47.67669800000000	805.18528200000003	52.14906000000000	0.30531000000000	0.00000000000000	0.08919400000000	0.00000000000000	0.00000000000000	0.00000000000000	0.00000000000000	0.00000000000000	0.00000000000000	0.00000000000000	21.28450700000000	0.00000000000000	0.00000000000000	0.00000000000000	0.00000000000000	
20.75492400000000	47.03477600000000	804.55070899999998	52.12581900000000	0.30436500000000	0.00000000000000	0.08920100000000	0.00000000000000	0.00000000000000	0.00000000000000	0.00000000000000	0.00000000000000	0.00000000000000	0.00000000000000	21.27921300000000	0.00000000000000	0.00000000000000	0.00000000000000	0.00000000000000	
20.75658800000000	46.39433000000000	803.78764200000001	52.09063100000000	0.30340700000000	0.00000000000000	0.08920800000000	0.00000000000000	0.00000000000000	0.00000000000000	0.00000000000000	0.00000000000000	0.00000000000000	0.00000000000000	21.26774300000000	0.00000000000000	0.00000000000000	0.00000000000000	0.00000000000000	
20.75825600000000	45.75542000000000	802.90046700000005	52.04318100000000	0.30243500000000	0.00000000000000	0.08921500000000	0.00000000000000	0.00000000000000	0.00000000000000	0.00000000000000	0.00000000000000	0.00000000000000	0.00000000000000	21.24989700000000	0.00000000000000	0.00000000000000	0.00000000000000	0.00000000000000	
20.75992300000000	45.11811400000000	801.89375399999994	51.98319300000000	0.30144800000000	0.00000000000000	0.08922100000000	0.00000000000000	0.00000000000000	0.00000000000000	0.00000000000000	0.00000000000000	0.00000000000000	0.00000000000000	21.22549900000000	0.00000000000000	0.00000000000000	0.00000000000000	0.00000000000000	
20.76160000000000	44.48248500000000	800.77224799999999	51.91043600000000	0.30044500000000	0.00000000000000	0.08922600000000	0.00000000000000	0.00000000000000	0.00000000000000	0.00000000000000	0.00000000000000	0.00000000000000	0.00000000000000	21.19440000000000	0.00000000000000	0.00000000000000	0.00000000000000	0.00000000000000	
20.76325600000000	43.84861600000000	799.54085499999997	51.82472400000000	0.29942500000000	0.00000000000000	0.08923200000000	0.00000000000000	0.00000000000000	0.00000000000000	0.00000000000000	0.00000000000000	0.00000000000000	0.00000000000000	21.15647600000000	0.00000000000000	0.00000000000000	0.00000000000000	0.00000000000000	
20.76492900000000	43.21660300000000	798.20462699999996	51.72591700000000	0.29838900000000	0.00000000000000	0.08923600000000	0.00000000000000	0.00000000000000	0.00000000000000	0.00000000000000	0.00000000000000	0.00000000000000	0.00000000000000	21.11163500000000	0.00000000000000	0.00000000000000	0.00000000000000	0.00000000000000	
20.76658400000000	42.58655100000000	796.76874599999996	51.61392700000000	0.29733400000000	0.00000000000000	0.08924000000000	0.00000000000000	0.00000000000000	0.00000000000000	0.00000000000000	0.00000000000000	0.00000000000000	0.00000000000000	21.05981100000000	0.00000000000000	0.00000000000000	0.00000000000000	0.00000000000000	
20.76825100000000	41.95858300000000	795.23851400000001	51.48871100000000	0.29626200000000	0.00000000000000	0.08924400000000	0.00000000000000	0.00000000000000	0.00000000000000	0.00000000000000	0.00000000000000	0.00000000000000	0.00000000000000	21.00097000000000	0.00000000000000	0.00000000000000	0.00000000000000	0.00000000000000	
20.76992800000000	41.33283400000000	793.61933199999999	51.35028200000000	0.29517000000000	0.00000000000000	0.08924700000000	0.00000000000000	0.00000000000000	0.00000000000000	0.00000000000000	0.00000000000000	0.00000000000000	0.00000000000000	20.93510600000000	0.00000000000000	0.00000000000000	0.00000000000000	0.00000000000000	
20.77158400000000	40.70945700000000	791.91669100000001	51.19870000000000	0.29406000000000	0.00000000000000	0.08924900000000	0.00000000000000	0.00000000000000	0.00000000000000	0.00000000000000	0.00000000000000	0.00000000000000	0.00000000000000	20.86224700000000	0.00000000000000	0.00000000000000	0.00000000000000	0.00000000000000	
